<?xml version="1.0" encoding="utf-8"?>
<!-- Generator: Adobe Illustrator 22.0.1, SVG Export Plug-In . SVG Version: 6.00 Build 0)  -->
<svg version="1.1" xmlns="http://www.w3.org/2000/svg" xmlns:xlink="http://www.w3.org/1999/xlink" x="0px" y="0px"
	 viewBox="0 0 2272 1872" style="enable-background:new 0 0 2272 1872;" xml:space="preserve">
<style type="text/css">
	.st0{fill:url(#SVGID_1_);}
	.st1{fill:url(#SVGID_2_);}
	.st2{fill:url(#SVGID_3_);}
	.st3{clip-path:url(#SVGID_5_);fill:url(#SVGID_6_);}
	.st4{clip-path:url(#SVGID_5_);fill:#88E5F9;}
	.st5{opacity:0.49;clip-path:url(#SVGID_5_);}
	.st6{fill:#4F4144;}
	.st7{fill:#FFC39A;}
	.st8{fill:#C95D75;}
	.st9{fill:#A3465F;}
	.st10{fill:#F48E69;}
	.st11{fill:#353230;}
	.st12{clip-path:url(#SVGID_5_);}
	.st13{fill:#3A3033;}
	.st14{clip-path:url(#SVGID_5_);fill:url(#SVGID_7_);}
	.st15{clip-path:url(#SVGID_5_);fill:url(#SVGID_8_);}
	.st16{clip-path:url(#SVGID_5_);fill:url(#SVGID_9_);}
	.st17{clip-path:url(#SVGID_5_);fill:url(#SVGID_10_);}
	.st18{clip-path:url(#SVGID_5_);fill:url(#SVGID_11_);}
	.st19{clip-path:url(#SVGID_5_);fill:url(#SVGID_12_);}
	.st20{clip-path:url(#SVGID_5_);fill:#12ACE0;}
	.st21{fill:#FFB10D;}
	.st22{fill:url(#SVGID_13_);}
	.st23{fill:url(#SVGID_14_);}
	.st24{fill:#88E5F9;}
</style>
<g id="Background">
	<linearGradient id="SVGID_1_" gradientUnits="userSpaceOnUse" x1="1234.745" y1="1047.0881" x2="181.536" y2="-137.772">
		<stop  offset="0" style="stop-color:#FFFFFF"/>
		<stop  offset="1" style="stop-color:#12ACE0"/>
	</linearGradient>
	<rect class="st0" width="2272" height="1872"/>
	<linearGradient id="SVGID_2_" gradientUnits="userSpaceOnUse" x1="1234.745" y1="1047.0881" x2="181.536" y2="-137.772">
		<stop  offset="0" style="stop-color:#FFFFFF"/>
		<stop  offset="1" style="stop-color:#12ACE0"/>
	</linearGradient>
	<rect class="st1" width="2272" height="1872"/>
	<linearGradient id="SVGID_3_" gradientUnits="userSpaceOnUse" x1="409.833" y1="1455.0555" x2="2214.4067" y2="-216.4622">
		<stop  offset="0" style="stop-color:#FFFFFF"/>
		<stop  offset="1" style="stop-color:#12ACE0"/>
	</linearGradient>
	<path class="st2" d="M1307.5,0C1303.1,17.7,0,1022.6,0,1022.6V1872h610L2272,542.2V0H1307.5z"/>
</g>
<g id="Object">
	<g>
		<defs>
			<rect id="SVGID_4_" width="2272" height="1872"/>
		</defs>
		<clipPath id="SVGID_5_">
			<use xlink:href="#SVGID_4_"  style="overflow:visible;"/>
		</clipPath>
		<linearGradient id="SVGID_6_" gradientUnits="userSpaceOnUse" x1="350.2818" y1="1031.0465" x2="1294.7347" y2="37.4302">
			<stop  offset="0" style="stop-color:#FFFFFF"/>
			<stop  offset="1" style="stop-color:#12ACE0"/>
		</linearGradient>
		<polygon class="st3" points="128.5,1144.6 136.4,1186.7 1251.4,202.8 1295.5,125.9 		"/>
		<polygon class="st4" points="591.6,1419.5 2236.5,175.7 2184.4,266.6 515.2,1532.4 		"/>
		<g class="st5">
			<path class="st6" d="M804.8,2556c17.7-3.7,29.1-12.8,34.8-22.2s6.5-19.3,9.7-28.9c4.5-13.7,14.2-27.4,33.2-37.3
				c12.3-6.5,27.9-11,43-15.7c36.7-11.4,74.4-26.4,82.5-47.9c6.1-16.1-6.6-33.2-28.5-45.2s-52-19.5-83-23.8
				c-15.9-2.2-32.3-3.7-48.8-3.1c-23.6,0.8-46.1,5.9-65.3,13c-34.9,12.9-59.7,32.7-67.9,54.2c-3.4,8.9-4.1,18-9.3,26.6
				c-7.8,12.7-25.3,23.6-31.9,36.5c-3.6,7-3.7,14.3-2.2,21.5c4.3,21.1,23.2,39.3,50.1,55.1C742.5,2551.2,768.5,2563.7,804.8,2556z"
				/>
			<g>
				<path class="st7" d="M831.8,1939.1c0,0,37.1,105.7,70.7,153c33.7,47.3,94,83.1,51.9,131.9c-42.1,48.7-86.9,82.7-77.8,113.7
					c9.1,31,22.2,32.5-18.2,55.8c-23,13.2-35.2,24.8-41.5,32.3c-4.8,5.8-14.9,9.9-27,11c-32.1,2.9-90.9,7.8-102.4,6.3
					c-1.7-0.2-13.3-1.6-15.2-2.3c-15.2-3.9-47-15.6-47-36.6c0-25.7,8.4-39.4,7.6-41.6c-0.8-2.1-4.2-66.5-12.6-76.7
					c-8.4-10.3-34.4-12.9-36.1-42c-1.4-23.6-27-57.7-36.7-69.7c0,0-39.4-8.6-50.3-7.1c-10.9,1.4-45.4-19.3-45.4-19.3s4.3-3.6,11.3,0
					c7.1,3.6,24,9.2,24,9.2l37.9,0.2c0,0-26.9-11.6-21.7-17.1c5.2-5.5,24.1,11.1,32.6,11.8c3.2,0.3,7.3,1,11.2,1.8
					c7.4,1.5,12.2,5.2,12.2,9.3c0,0.6,0,1.1,0,1.6c14.9,8.2,90.5,78.4,95.3,95.7c3.7,13.4,22.4,75.3,32.4,108.1
					c24.2-22.2,67.6-64.6,67.6-90.5c0-35.2-80-36.1-41.6-104c38.3-68,26.8-115.8,12.1-143.5c-14.8-27.7-78.9-3.4-100.2-77.2
					c-21.4-73.8-74.5-93.7-99.4-117.7c-24.9-24-42.8-50.8-37.3-62.8c5.5-12,69.2-14.8,78.1-13.1c8.9,1.7-40,30.2-25.1,46.8
					c15.9,17.6,161.4,112.3,244.9,211.8c-19.9-28.5-43.2-68.1-38.8-92c7.4-40.5-21.1-102.6-21.1-102.6s-32.3-9.5-16.5-18.9
					c15.7-9.4,30.5-15.6,36.1-41.5l2.8-9h93.4c0,0-0.3,10.5-49,12.7c0,0-19,25.2-15.6,52.1C780.8,1845.6,831.8,1939.1,831.8,1939.1z
					"/>
				<path class="st7" d="M706,2476.3c0-1.3,4.5-50.6,4.5-50.6l45.5-3.5l16.9,48.4L706,2476.3z"/>
				<path class="st8" d="M708.1,2452.5c1.2-13.1,2.4-26.8,2.4-26.8l45.5-3.5l9.9,28.2C739.5,2444.5,719.6,2448.4,708.1,2452.5z"/>
				<path class="st7" d="M814,2392.7l135.1-47.3c0,0-19-1.7-25.7-16c-6.7-14.3-56.9-48.5-56.9-48.5l15.1-12.5
					c0,0,125.6,52.4,128.9,71s-189.5,92.3-220.4,97.3S814,2392.7,814,2392.7z"/>
				<path class="st9" d="M894.1,2400.9c-45.7,18.2-90.4,33.6-104,35.8c-31,4.9,24-44,24-44l49.2-17.2c0.1,0.1,0.3,0.2,0.4,0.3
					C874.6,2385,889.4,2391.6,894.1,2400.9z"/>
				<path class="st8" d="M831.8,1939.1c0,0,37.1,105.7,70.7,153c33.7,47.3,94,83.1,51.9,131.9c-42.1,48.7-86.9,82.7-77.8,113.7
					c9.1,31,22.2,32.5-18.2,55.8c-23,13.2-35.2,24.8-41.5,32.3c-4.8,5.8-14.9,9.9-27,11c-32.1,2.9-90.9,7.8-102.4,6.3
					c-1.7-0.2-13.3-1.6-15.2-2.3c-15.2-3.9-47-15.6-47-36.6c0-11.9,1.8-21.2,3.6-28c3.5-0.7,6.8-1.7,9.8-2.7
					c16.3-5.5,31.1-12.2,43.8-19.8c0,0,0.1-0.1,0.1-0.1c1.6,5.2,3.1,10.2,4.4,14.5c24.2-22.2,67.6-64.6,67.6-90.5
					c0-35.2-80-36.1-41.6-104c38.3-68,26.8-115.8,12.1-143.5c-14.8-27.7-78.9-3.4-100.2-77.2c-21.4-73.8-74.5-93.7-99.4-117.7
					c-24.9-24-42.8-50.8-37.3-62.8s69.2-14.8,78.1-13.1c8.9,1.7-40,30.2-25.1,46.8c15.9,17.6,161.4,112.3,244.9,211.8
					c-19.9-28.5-43.2-68.1-38.8-92c7.4-40.5-21.1-102.6-21.1-102.6s-32.3-9.5-16.5-18.9c15.7-9.4,30.5-15.6,36.1-41.5l2.8-9h93.4
					c0,0-0.3,10.5-49,12.7c0,0-19,25.2-15.6,52.1C780.8,1845.6,831.8,1939.1,831.8,1939.1z"/>
				<path class="st9" d="M728.1,2352.7c27.1,0,49.6-1.7,62.3,4.2c12.7,5.9,79.5,3.3,79.5,3.3s-14.1,3-34.8,7.3
					c-13.4,2.7-37.2-1.1-52.3-4.1c-11.8-2.4-24.5-3.3-37.2-2.7c-23.1,1.2-42.3,3.5-56.8,5.9c24.4-22.5,65.9-63.7,65.9-89
					c0-3.4-0.8-6.5-2.1-9.4C784.1,2294.1,728.1,2352.7,728.1,2352.7z"/>
				<path class="st10" d="M682.7,2353.7c-5.7,3.4-11.8,6.6-18.3,9.6c-6.5-26.8-16.9-69.9-21.2-92.4c-6.5-34.1-90.7-104.1-90.7-104.1
					c1.8-10.9-23.4-12.5-23.4-12.5l-24.6-15.2c6.2-3.3,23.7,11.8,31.7,12.5c3.2,0.3,7.3,1,11.2,1.8c7.4,1.5,12.2,5.2,12.2,9.3
					c0,0.6,0,1.1,0,1.6c14.9,8.2,90.5,78.4,95.3,95.7c3.2,11.6,17.7,59.8,28,93.8c0-0.1,0-0.1-0.1-0.2
					C682.8,2353.7,682.8,2353.7,682.7,2353.7z"/>
				<path class="st9" d="M664.4,2363.4c6.5-3,12.6-6.2,18.3-9.6c0,0,0.1-0.1,0.1-0.1c0,0.1,0,0.1,0.1,0.2c0.2,0.7,0.4,1.5,0.7,2.2
					c0.4,1.3,0.8,2.5,1.1,3.8c0.1,0.3,0.2,0.7,0.3,1c0,0.2,0.1,0.3,0.1,0.5c0.2,0.6,0.3,1.1,0.5,1.7c0,0,0,0,0,0
					c0.5,1.8,1.1,3.5,1.6,5.1l-17.1,18.5C670.1,2386.7,667.8,2377.2,664.4,2363.4z"/>
				<path class="st7" d="M831.8,1939.1c0,0,27.4,78.1,56.5,130.1c-51.7-0.8-103.9,5.6-149.1,18.5c0.3-24.4-6.4-43.6-13.9-57.6
					c-14.8-27.7-78.9-3.4-100.2-77.2c-21.4-73.8-74.5-93.7-99.4-117.7c-24.9-24-42.8-50.8-37.3-62.8s69.2-14.8,78.1-13.1
					c8.9,1.7-40,30.2-25.1,46.8c15.9,17.6,161.4,112.3,244.9,211.8c-19.9-28.5-43.2-68.1-38.8-92c7.4-40.5-21.1-102.6-21.1-102.6
					s-32.3-9.5-16.5-18.9c15.7-9.4,30.5-15.6,36.1-41.5l2.8-9h93.4c0,0-0.3,10.5-49,12.7c0,0-19,25.2-15.6,52.1
					C780.8,1845.6,831.8,1939.1,831.8,1939.1z"/>
				<path class="st10" d="M780.6,1936.4c-3.4,14.8,68,108.8,86.6,132.9c-12.7,0.3-25.4,1-38,2.1l0,0l-42.9-53.4
					c-19.9-28.5-43.2-68.1-38.8-92c7.4-40.5-21.1-102.6-21.1-102.6s-32.3-9.5-16.5-18.9c15.7-9.4,30.5-15.6,36.1-41.5l2.8-9h41.8
					l-46.4,62.1C744.1,1816,784.5,1919.4,780.6,1936.4z"/>
				<path class="st10" d="M733,2004.2c28.4,30.2,28.6,54.9,29,77.7c-7.8,1.8-15.4,3.7-22.8,5.8c0.3-24.4-6.4-43.6-13.9-57.6
					c-14.8-27.7-78.9-3.4-100.2-77.2c-21.4-73.8-74.5-93.7-99.4-117.7c-24.9-24-42.8-50.8-37.3-62.8c3.7-8,33.3-11.9,55.2-13.1
					c-13,9.4-36.2,29.2-28.4,45.7c10.6,22.6,90.1,72.8,118.6,127s71.8,61.2,71.8,61.2s-9.4-31.1,39.6-19.5c1.4,1.4,2.9,2.8,4.3,4.2
					C733.9,1978,711.7,1981.5,733,2004.2z"/>
				<path class="st11" d="M793.1,1766.7l-25.9,3.2c-0.7,16.3-33,43.3-44.3,52.3c-7.9-2.8-25.4-10.3-13-17.7
					c15.7-9.4,30.5-15.6,36.1-41.5l2.8-9h93.4C842.1,1753.9,841.8,1764.5,793.1,1766.7z"/>
				<path class="st11" d="M501.5,1789.7c0,3.4-1.5,6.8-4.1,10l-0.9,1.2c-7.5-11.8-11-22.1-8.2-28.3c5.5-12,69.2-14.8,78.1-13.1
					c4.4,0.8-1.1,7.2-5.8,15.3C525,1773,501.6,1785.1,501.5,1789.7z"/>
				<path class="st7" d="M820,2499.9c-0.2,2.1-0.6,4.3-2.3,6.2c-1.7,1.9-4.8,3.7-8.8,4.1c-0.5,0.1-1,0.1-1.6,0.1
					c0.8,2.4,1.4,4.6,2,6.4c1.1,3.8-0.8,7.6-5.2,10.7c-15.5,10.6-57.9,30.1-133.1-0.9c-1.1-0.5,0.1-7.5,2.2-16.4
					c-1.6,0.3-3.4,0.4-5.1,0.2c-4-0.5-7.2-2.2-8.8-4.1c-1.7-1.9-2.1-4.1-2.3-6.2c-0.5-5.1,0.2-10.7,6.4-14.7
					c4.3-2.8,10.8-4.6,17.1-6.2c0.3-0.1,0.6-0.2,0.9-0.2c0.3-0.9,0.5-1.8,0.7-2.6c1.1-3.9,4.4-7.6,9.6-10.5l27.8-16
					c6.8-3.9,18.1-4.7,26.8-2c16.7,5.3,41.6,13.7,44.9,18c1.4,1.8,3.5,7,5.9,13.5c6.1,1.6,12.4,3.3,16.6,6.1
					C819.9,2489.2,820.6,2494.8,820,2499.9z M671.4,2509.6l2-0.6c0-0.1,0-0.1,0-0.2C672.8,2509.1,672.1,2509.3,671.4,2509.6z"/>
			</g>
			<path class="st6" d="M811.4,2509.7c-0.8,0.2-1.6,0.4-2.5,0.5c-0.5,0.1-1,0.1-1.6,0.1c0.8,2.4,1.4,4.6,2,6.4
				c1.1,3.8-0.8,7.6-5.2,10.7c-2.1,1.4-4.7,3-7.8,4.7l0,0l-15.7,10.9c-4.8,0.3-9.3,0.3-13.5,0.2c-10.6,7.5-28.5,15-43.6,15.9
				c-23.7,1.4-48.5-4.1-62.7-13.9c-15.5-10.7-17.9-24.8-17.5-38s2.9-26.9-4.8-39.5c10.9,3.2,19.4,7,28.3,11.5
				c-0.6-7-4.3-13.8-10.9-19.9c13.5,7,24,15.1,30.1,24.4c1.4-11-6.4-22.3-20.9-30.5c22.5,3.9,35.5,16,41.2,27.8
				c2.2,4.6,3.7,9.2,5.2,13.9c42.5,1.9,54.3,18.1,54.3,18.1l-7.5-13.4c20.8,7.9,30.2,16.9,34.5,23.4c1.5-3.6,0.7-7.5-2.3-10.8
				c-1.3-1.5-3.1-2.9-3.2-4.5c-0.1-0.9,0.3-1.8,0.6-2.6c2.9-7.3,3.6-14.8,1.8-22.1C794.1,2492.3,801.5,2501.4,811.4,2509.7z
				 M711.7,2495.5c0.9,2.8,1.8,5.5,2.9,8.3c41.3,4.6,47.9,20.3,47.9,20.3C760.8,2509.2,723.7,2498.6,711.7,2495.5z"/>
		</g>
		<g class="st12">
			<path class="st6" d="M804.8,202.4c17.7,7.3,29.1,25.1,34.8,43.5s6.5,37.7,9.7,56.6c4.5,26.8,14.2,53.6,33.2,73.1
				c12.3,12.6,27.9,21.5,43,30.7c36.7,22.3,74.4,51.7,82.5,93.8c6.1,31.6-6.6,65-28.5,88.5s-52,38.2-83,46.7
				c-15.9,4.3-32.3,7.2-48.8,6c-23.6-1.6-46.1-11.5-65.3-25.4c-34.9-25.2-59.7-64-67.9-106.2c-3.4-17.3-4.1-35.2-9.3-52.1
				c-7.8-24.9-25.3-46.1-31.9-71.4c-3.6-13.7-3.7-28.1-2.2-42.2c4.3-41.3,23.2-76.9,50.1-107.8C742.5,211.8,768.5,187.4,804.8,202.4
				z"/>
			<path class="st13" d="M837.5,622.4c17.2,2.8,35,0.8,52-3.1c25.9-5.8,53-17.5,65.1-41.1c11.7-22.6,6.3-51-7-72.8
				c-13.3-21.7-33.4-38.3-52.9-54.7c-19.5-16.4-39.2-33.7-51.2-56.2c-14.2-26.7-16.2-58.2-27.8-86.2c-5.5-13.3-13.7-26.3-26.6-32.7
				c-20.8-10.4-46.1-0.5-69.1-4.3c-7.5-1.2-15.1-2.3-22.7-3.2c-14.1,22.9-23.5,48.1-26.5,75.9c-1.5,14.1-1.3,28.5,2.2,42.2
				c6.6,25.3,24,46.5,31.9,71.4c5.3,16.8,6,34.7,9.3,52.1c4.1,21.1,12.3,41.3,23.8,59.4c14.5,11.2,29.7,21.6,45.5,31
				C800.5,610.1,818.2,619.2,837.5,622.4z"/>
			<g>
				<path class="st7" d="M831.8,1410.3c0,0,37.1-206.9,70.7-299.5c33.7-92.6,94-162.8,51.9-258.2c-42.1-95.4-86.9-161.9-77.8-222.6
					c9.1-60.7,22.2-63.7-18.2-109.2c-23-25.9-35.2-48.5-41.5-63.2c-4.8-11.3-14.9-19.4-27-21.5c-32.1-5.6-90.9-15.3-102.4-12.4
					c-1.7,0.4-13.3,3.1-15.2,4.4c-15.2,7.7-47,30.6-47,71.7c0,50.4,8.4,77.2,7.6,81.4c-0.8,4.2-4.2,130.1-12.6,150.3
					c-8.4,20.1-34.4,25.2-36.1,82.3c-1.4,46.3-27,113-36.7,136.6c0,0-39.4,16.8-50.3,13.9c-10.9-2.8-45.4,37.8-45.4,37.8
					s4.3,7.1,11.3,0c7.1-7.1,24-18,24-18l37.9-0.5c0,0-26.9,22.7-21.7,33.5c5.2,10.9,24.1-21.7,32.6-23.2c3.2-0.5,7.3-2,11.2-3.5
					c7.4-3,12.2-10.2,12.2-18.2c0-1.1,0-2.2,0-3.1c14.9-16.1,90.5-153.5,95.3-187.3c3.7-26.2,22.4-147.5,32.4-211.7
					c24.2,43.4,67.6,126.5,67.6,177.3c0,69-80,70.6-41.6,203.7c38.3,133.1,26.8,226.7,12.1,281c-14.8,54.2-78.9,6.6-100.2,151.2
					c-21.4,144.6-74.5,183.4-99.4,230.4c-24.9,46.9-42.8,99.4-37.3,122.9c5.5,23.5,69.2,28.9,78.1,25.6c8.9-3.3-40-59.2-25.1-91.7
					c15.9-34.5,161.4-219.8,244.9-414.7c-19.9,55.7-43.2,133.4-38.8,180.2c7.4,79.4-21.1,200.9-21.1,200.9s-32.3,18.5-16.5,37
					s30.5,30.5,36.1,81.3l2.8,17.6h93.4c0,0-0.3-20.6-49-25c0,0-19-49.3-15.6-101.9C780.8,1593.4,831.8,1410.3,831.8,1410.3z"/>
				<path class="st7" d="M706,358.5c0,2.5,4.5,99,4.5,99l45.5,6.8l16.9-94.8L706,358.5z"/>
				<path class="st7" d="M814,522.1l135.1,92.6c0,0-19,3.3-25.7,31.3c-6.7,27.9-56.9,94.9-56.9,94.9l15.1,24.6
					c0,0,125.6-102.7,128.9-139S821,445.7,790.1,436S814,522.1,814,522.1z"/>
				<path class="st10" d="M938.5,636c1.3-21.2,41.7-21.1,41.7-21.1c-37.4-1.5-138.9-84.9-181-120.7c7.7,15.5,14.8,27.9,14.8,27.9
					l135.1,92.6c0,0-19,3.3-25.7,31.3c-6.7,27.9-56.9,94.9-56.9,94.9l15.1,24.6c0,0,13-10.7,30.8-26.3l-13.5-26.4
					C898.8,712.7,937.2,657.2,938.5,636z"/>
				<path class="st9" d="M894.1,506.1c-45.7-35.6-90.4-65.9-104-70.1c-31-9.7,24,86.1,24,86.1l49.2,33.7c0.1-0.2,0.3-0.4,0.4-0.6
					C874.6,537.3,889.4,524.4,894.1,506.1z"/>
				<path class="st8" d="M831.8,1410.3c0,0,37.1-206.9,70.7-299.5c33.7-92.6,94-162.8,51.9-258.2c-42.1-95.4-86.9-161.9-77.8-222.6
					c9.1-60.7,22.2-63.7-18.2-109.2c-23-25.9-35.2-48.5-41.5-63.2c-4.8-11.3-14.9-19.4-27-21.5c-8.1-1.4-17.9-3.1-28.2-4.8l4-22.2
					c-26.3,11.7-46.2,4-57.8-3.9c0.3,6.4,0.6,12.8,0.9,18.9c-10-1-17.8-1.2-21.3-0.3c-1.7,0.4-13.3,3.1-15.2,4.4
					c-15.2,7.7-47,30.6-47,71.7c0,23.2,1.8,41.4,3.6,54.7c3.5,1.4,6.8,3.3,9.8,5.3c16.3,10.8,31.1,23.8,43.8,38.7
					c0,0.1,0.1,0.1,0.1,0.2c1.6-10.3,3.1-19.9,4.4-28.5c24.2,43.4,67.6,126.5,67.6,177.3c0,69-80,70.6-41.6,203.7
					c38.3,133.1,26.8,226.7,12.1,281c-14.8,54.2-78.9,6.6-100.2,151.2c-21.4,144.6-74.5,183.4-99.4,230.4
					c-24.9,46.9-42.8,99.4-37.3,122.9s69.2,28.9,78.1,25.6c8.9-3.3-40-59.2-25.1-91.7c15.9-34.5,161.4-219.8,244.9-414.7
					c-19.9,55.7-43.2,133.4-38.8,180.2c7.4,79.4-21.1,200.9-21.1,200.9s-32.3,18.5-16.5,37s30.5,30.5,36.1,81.3l2.8,17.6h93.4
					c0,0-0.3-20.6-49-25c0,0-19-49.3-15.6-101.9C780.8,1593.4,831.8,1410.3,831.8,1410.3z"/>
				<path class="st9" d="M761.9,431.3l1.8-10.2l-18.2,10.3l-20.5-8.2l-16.6-12.8c0.2,4.6,0.4,9.2,0.6,13.6l32.9,24.4L761.9,431.3z"
					/>
				<path class="st9" d="M728.1,600.4c27.1,0,49.6,3.3,62.3-8.3c12.7-11.6,79.5-6.5,79.5-6.5s-14.1-5.9-34.8-14.2
					c-13.4-5.4-37.2,2.1-52.3,8.1c-11.8,4.7-24.5,6.5-37.2,5.2c-23.1-2.3-42.3-6.9-56.8-11.6c24.4,44.2,65.9,124.6,65.9,174.3
					c0,6.7-0.8,12.8-2.1,18.4C784.1,715.3,728.1,600.4,728.1,600.4z"/>
				<path class="st10" d="M682.7,598.5c-5.7-6.7-11.8-13-18.3-18.9c-6.5,52.5-16.9,136.9-21.2,181c-6.5,66.8-90.7,203.8-90.7,203.8
					c1.8,21.4-23.4,24.5-23.4,24.5l-24.6,29.7c6.2,6.5,23.7-23.1,31.7-24.4c3.2-0.5,7.3-2,11.2-3.5c7.4-3,12.2-10.2,12.2-18.2
					c0-1.1,0-2.2,0-3.1c14.9-16.1,90.5-153.5,95.3-187.3c3.2-22.8,17.7-117.1,28-183.6c0,0.1,0,0.3-0.1,0.4
					C682.8,598.6,682.8,598.5,682.7,598.5z"/>
				<path class="st9" d="M664.4,579.6c6.5,5.9,12.6,12.2,18.3,18.9c0,0.1,0.1,0.1,0.1,0.2c0-0.1,0-0.3,0.1-0.4
					c0.2-1.4,0.4-2.8,0.7-4.2c0.4-2.5,0.8-5,1.1-7.4c0.1-0.7,0.2-1.4,0.3-2c0-0.3,0.1-0.6,0.1-0.9c0.2-1.1,0.3-2.2,0.5-3.4
					c0,0,0,0,0-0.1c0.5-3.5,1.1-6.8,1.6-10l-17.1-36.3C670.1,533.9,667.8,552.4,664.4,579.6z"/>
				<path class="st7" d="M831.8,1410.3c0,0,27.4-153,56.5-254.7c-51.7,1.5-103.9-11-149.1-36.2c0.3,47.7-6.4,85.3-13.9,112.8
					c-14.8,54.2-78.9,6.6-100.2,151.2c-21.4,144.6-74.5,183.4-99.4,230.4c-24.9,46.9-42.8,99.4-37.3,122.9s69.2,28.9,78.1,25.6
					c8.9-3.3-40-59.2-25.1-91.7c15.9-34.5,161.4-219.8,244.9-414.7c-19.9,55.7-43.2,133.4-38.8,180.2
					c7.4,79.4-21.1,200.9-21.1,200.9s-32.3,18.5-16.5,37s30.5,30.5,36.1,81.3l2.8,17.6h93.4c0,0-0.3-20.6-49-25
					c0,0-19-49.3-15.6-101.9C780.8,1593.4,831.8,1410.3,831.8,1410.3z"/>
				<path class="st10" d="M780.6,1415.7c-3.4-29,68-213.1,86.6-260.3c-12.7-0.6-25.4-2-38-4.2l0,0l-42.9,104.6
					c-19.9,55.7-43.2,133.4-38.8,180.2c7.4,79.4-21.1,200.9-21.1,200.9s-32.3,18.5-16.5,37s30.5,30.5,36.1,81.3l2.8,17.6h41.8
					l-46.4-121.5C744.1,1651.4,784.5,1449,780.6,1415.7z"/>
				<path class="st10" d="M733,1282.9c28.4-59.2,28.6-107.6,29-152.2c-7.8-3.5-15.4-7.2-22.8-11.4c0.3,47.7-6.4,85.3-13.9,112.8
					c-14.8,54.2-78.9,6.6-100.2,151.2c-21.4,144.6-74.5,183.4-99.4,230.4c-24.9,46.9-42.8,99.4-37.3,122.9
					c3.7,15.7,33.3,23.3,55.2,25.7c-13-18.4-36.2-57.1-28.4-89.5c10.6-44.2,90.1-142.6,118.6-248.7
					c28.5-106.1,71.8-119.8,71.8-119.8s-9.4,60.9,39.6,38.2c1.4-2.8,2.9-5.5,4.3-8.3C733.9,1334.1,711.7,1327.4,733,1282.9z"/>
				<path class="st11" d="M793.1,1747.9l-25.9-6.2c-0.7-31.9-33-84.8-44.3-102.5c-7.9,5.5-25.4,20.1-13,34.7
					c15.7,18.5,30.5,30.5,36.1,81.3l2.8,17.6h93.4C842.1,1772.9,841.8,1752.3,793.1,1747.9z"/>
				<path class="st11" d="M501.5,1702.8c0-6.7-1.5-13.3-4.1-19.5l-0.9-2.3c-7.5,23.1-11,43.2-8.2,55.5c5.5,23.5,69.2,28.9,78.1,25.6
					c4.4-1.7-1.1-14-5.8-30C525,1735.6,501.6,1712,501.5,1702.8z"/>
				<path class="st7" d="M820,312.3c-0.2-4.1-0.6-8.3-2.3-12.1c-1.7-3.8-4.8-7.2-8.8-8.1c-0.5-0.1-1-0.2-1.6-0.2
					c0.8-4.8,1.4-9.1,2-12.6c1.1-7.4-0.8-14.9-5.2-20.9c-15.5-20.7-57.9-58.9-133.1,1.9c-1.1,0.9,0.1,14.6,2.2,32.1
					c-1.6-0.6-3.4-0.7-5.1-0.3c-4,1-7.2,4.3-8.8,8.1s-2.1,8-2.3,12.1c-0.5,10.1,0.2,20.9,6.4,28.9c4.3,5.5,10.8,8.9,17.1,12.1
					c0.3,0.1,0.6,0.3,0.9,0.4c0.3,1.8,0.5,3.5,0.7,5.1c1.1,7.7,4.4,14.8,9.6,20.6l27.8,31.3c6.8,7.6,18.1,9.3,26.8,3.9
					c16.7-10.3,41.6-26.8,44.9-35.2c1.4-3.6,3.5-13.7,5.9-26.4c6.1-3.1,12.4-6.5,16.6-11.9C819.9,333.2,820.6,322.3,820,312.3z
					 M671.4,293.3l2,1.1c0,0.1,0,0.3,0,0.4C672.8,294.3,672.1,293.8,671.4,293.3z"/>
				<path class="st10" d="M820,312.3c-0.2-4.1-0.6-8.3-2.3-12.1c-1.7-3.8-4.8-7.2-8.8-8.1c-0.5-0.1-1-0.2-1.6-0.2
					c0.8-4.8,1.4-9.1,2-12.6c1.1-7.4-0.8-14.9-5.2-20.9c-15.5-20.7-57.9-58.9-133.1,1.9c-1.1,0.9,0.1,14.6,2.2,32.1
					c-1.6-0.6-3.4-0.7-5.1-0.3c-4,1-7.2,4.3-8.8,8.1s-2.1,8-2.3,12.1c-0.5,10.1,0.2,20.9,6.4,28.9c4.3,5.5,10.8,8.9,17.1,12.1
					c0.3,0.1,0.6,0.3,0.9,0.4c0.3,1.8,0.5,3.5,0.7,5.1c0.3,2.3,0.9,4.6,1.6,6.8c22.9-17,42.2-38.9,56.1-63.8
					c-3.5,11.3-9,22-16.3,31.4c12.6-6.3,24.5-13.9,35.4-22.7c-2.1,5-4.1,10-6.2,15c8.2-4.8,16.4-9.5,24.6-14.3
					c8.6,13.2,15.3,27.8,19.6,43c0.1-0.4,0.1-0.7,0.2-1.1c6.1-3.1,12.4-6.5,16.6-11.9C819.9,333.2,820.6,322.3,820,312.3z
					 M671.4,293.3l2,1.1c0,0.1,0,0.3,0,0.4C672.8,294.3,672.1,293.8,671.4,293.3z"/>
			</g>
			<path class="st6" d="M811.4,293c-0.8-0.4-3.1-0.3-2.5-1c7.8-8.8,12.7-8.2,13.2-11.7c1.1-7.4-8.5-23-13-29
				c-2.1-2.8-2.8-11.1-5.9-14.3l-7,12.2l-15.7-21.3c-4.8-0.5-9.3-0.6-13.5-0.4c-10.6-14.7-28.5-29.5-43.6-31.2
				c-23.7-2.7-48.5,8.1-62.7,27.3c-15.5,20.9-17.9,48.5-17.5,74.5c0.4,26,2.9,52.6-4.8,77.4c10.9-6.3,19.4-13.6,28.3-22.6
				c-0.6,13.6-4.3,27.1-10.9,39c13.5-13.6,24-29.5,30.1-47.7c1.4,21.6-6.4,43.6-20.9,59.6c22.5-7.7,35.5-31.3,41.2-54.4
				c2.2-8.9,3.7-18.1,5.2-27.2c42.5-3.7,54.3-35.5,54.3-35.5l-7.5,26.2c20.8-15.5,30.2-33,34.5-45.7c1.5,7.1,0.7,14.6-2.3,21.2
				c-1.3,2.9-3.1,5.7-3.2,8.8c-0.1,1.7,0.3,3.4,0.6,5.1c2.9,14.2,3.6,28.9,1.8,43.4C794.1,327.1,801.5,309.3,811.4,293z
				 M711.7,320.8c0.9-5.4,1.8-10.8,2.9-16.2c41.3-8.9,47.9-39.7,47.9-39.7C760.8,294.1,723.7,314.9,711.7,320.8z"/>
		</g>
		<linearGradient id="SVGID_7_" gradientUnits="userSpaceOnUse" x1="1041.3474" y1="1389.9438" x2="1522.5459" y2="996.2361">
			<stop  offset="0" style="stop-color:#FF8998"/>
			<stop  offset="1" style="stop-color:#FFA5D6"/>
		</linearGradient>
		<polygon class="st14" points="1002.8,1406.8 975.7,1467.8 1339.3,1161.6 1368.7,1098 		"/>
		<linearGradient id="SVGID_8_" gradientUnits="userSpaceOnUse" x1="171.0757" y1="1023.6663" x2="652.2742" y2="629.9585">
			<stop  offset="0" style="stop-color:#FF8998"/>
			<stop  offset="1" style="stop-color:#FFA5D6"/>
		</linearGradient>
		<polygon class="st15" points="132.5,1040.5 105.4,1101.5 469,795.4 498.4,731.7 		"/>
		<linearGradient id="SVGID_9_" gradientUnits="userSpaceOnUse" x1="390.3597" y1="192.0104" x2="783.3441" y2="192.0104">
			<stop  offset="0" style="stop-color:#FFFFFF"/>
			<stop  offset="1" style="stop-color:#FFA5D6"/>
		</linearGradient>
		<polygon class="st16" points="417.5,315.9 390.4,376.9 754,70.7 783.3,7.1 		"/>
		<linearGradient id="SVGID_10_" gradientUnits="userSpaceOnUse" x1="75.0536" y1="600.3842" x2="468.038" y2="600.3842">
			<stop  offset="0" style="stop-color:#FFFFFF"/>
			<stop  offset="1" style="stop-color:#12ACE0"/>
		</linearGradient>
		<polygon class="st17" points="102.2,724.3 75.1,785.3 438.7,479.1 468,415.5 		"/>
		<linearGradient id="SVGID_11_" gradientUnits="userSpaceOnUse" x1="1425.5564" y1="1504.1144" x2="2155.7258" y2="1504.1144">
			<stop  offset="0" style="stop-color:#FFFFFF"/>
			<stop  offset="1" style="stop-color:#FFA5D6"/>
		</linearGradient>
		<polygon class="st18" points="1475.9,1734.3 1425.6,1847.7 2101.2,1278.8 2155.7,1160.6 		"/>
		<linearGradient id="SVGID_12_" gradientUnits="userSpaceOnUse" x1="1239.0667" y1="1629.8082" x2="1642.7559" y2="1629.8082">
			<stop  offset="0" style="stop-color:#FFFFFF"/>
			<stop  offset="1" style="stop-color:#FFA5D6"/>
		</linearGradient>
		<polygon class="st19" points="1266.9,1757.1 1239.1,1819.7 1612.6,1505.2 1642.8,1439.9 		"/>
		<polygon class="st20" points="730,996.9 2374.9,-246.9 2322.8,-156.1 653.6,1109.8 		"/>
		<g class="st12">
			<polygon class="st21" points="244.3,1435.8 1590.9,418.9 1538.7,509.8 167.9,1548.7 			"/>
			<linearGradient id="SVGID_13_" gradientUnits="userSpaceOnUse" x1="1724.6862" y1="693.3785" x2="885.8647" y2="1365.8223">
				<stop  offset="0" style="stop-color:#FF8998"/>
				<stop  offset="1" style="stop-color:#FFA5D6"/>
			</linearGradient>
			<polygon class="st22" points="579,1549.8 2223.9,306.1 2171.8,396.9 502.6,1662.8 			"/>
			<linearGradient id="SVGID_14_" gradientUnits="userSpaceOnUse" x1="1635.5951" y1="64.4884" x2="1264.236" y2="362.1895">
				<stop  offset="0" style="stop-color:#FF8998"/>
				<stop  offset="1" style="stop-color:#FFA5D6"/>
			</linearGradient>
			<polygon class="st23" points="1178.4,390 1849.9,-115.4 1797.8,-24.5 1102,502.9 			"/>
			<polygon class="st24" points="887.9,764.5 1416.8,352.4 1364.7,443.3 811.4,877.4 			"/>
		</g>
		<circle class="st4" cx="2101.4" cy="955.2" r="113.6"/>
		<circle class="st20" cx="1755.2" cy="423.1" r="78.4"/>
		<circle class="st20" cx="301.9" cy="1657.1" r="78.4"/>
		<circle class="st4" cx="1966.6" cy="1109.8" r="56.8"/>
		<circle class="st4" cx="224.7" cy="197.8" r="56.8"/>
	</g>
</g>
<g id="TEXT">
</g>
</svg>
