<svg id="Flat" height="512" viewBox="0 0 64 64" width="512" xmlns="http://www.w3.org/2000/svg"><path d="m47 15-.62127-2.48507a2 2 0 0 0 -1.94028-1.51493h-2.8769a2 2 0 0 0 -1.94028 1.51493l-.62127 2.48507v3h8z" fill="#ffde7e"/><path d="m57 47h4a0 0 0 0 1 0 0v4a0 0 0 0 1 0 0h-6a0 0 0 0 1 0 0v-2a2 2 0 0 1 2-2z" fill="#efefef" transform="matrix(-1 0 0 -1 116 98)"/><path d="m25 47h6a0 0 0 0 1 0 0v4a0 0 0 0 1 0 0h-4a2 2 0 0 1 -2-2v-2a0 0 0 0 1 0 0z" fill="#efefef"/><path d="m43 18-9-1-6.94257 3.857a4 4 0 0 0 -2.05743 3.49661v22.64639h6v7a2 2 0 0 0 2 2h10z" fill="#faa"/><path d="m43 56h10a2 2 0 0 0 2-2v-7h6v-22.64639a4 4 0 0 0 -2.05743-3.49661l-6.94257-3.857-9 1z" fill="#f2a2a2"/><path d="m52 17-9 18-9-18 9 1z" fill="#e2e2e2"/><path d="m47.63576 14.90949-4.63576 3.09051 2.36844 3.15792a1 1 0 0 0 1.44019.16822l5.19137-4.32614-1.84062-1.84062a2 2 0 0 0 -2.52362-.24989z" fill="#efefef"/><path d="m38.36424 14.90949 4.63576 3.09051-2.36844 3.15792a1 1 0 0 1 -1.44019.16822l-5.19137-4.32614 1.84062-1.84062a2 2 0 0 1 2.52362-.24989z" fill="#efefef"/><g fill="#d99191"><circle cx="39" cy="40" r="1"/><circle cx="39" cy="45" r="1"/><circle cx="39" cy="50" r="1"/></g><path d="m41 56h4v6h-4z" fill="#d5d5d5"/><path d="m42 6h2v5h-2z" fill="#e6c871"/><circle cx="43" cy="5" fill="#ffde7e" r="2"/><path d="m3 36h16a2 2 0 0 1 2 2v4a2 2 0 0 1 -2 2h-16a0 0 0 0 1 0 0v-8a0 0 0 0 1 0 0z" fill="#e2e2e2" transform="matrix(-1 0 0 -1 24 80)"/><path d="m24 47h2v6h-2z" fill="#d5d5d5"/><rect fill="#efefef" height="6" rx="2" transform="matrix(-1 0 0 -1 33 116)" width="27" x="3" y="55"/><path d="m25 33a4 4 0 0 1 4 4v9a2 2 0 0 1 -2 2h-4a2 2 0 0 1 -2-2v-9a4 4 0 0 1 4-4z" fill="#efefef" transform="matrix(-1 0 0 -1 50 81)"/><path d="m6 44h9v11h-9z" fill="#d5d5d5" transform="matrix(-1 0 0 -1 21 99)"/><path d="m12 31h2v5h-2z" fill="#faa"/><path d="m6 31h2v5h-2z" fill="#faa"/></svg>